SplineFontDB: 3.2
FontName: Untitled1
FullName: Untitled1
FamilyName: Untitled1
Weight: Regular
Copyright: Copyright (c) 2026, Admin
UComments: "2026-1-24: Created with FontForge (http://fontforge.org)"
Version: 001.000
ItalicAngle: 0
UnderlinePosition: -100
UnderlineWidth: 49
Ascent: 1000
Descent: 0
InvalidEm: 0
LayerCount: 2
Layer: 0 0 "Back" 1
Layer: 1 0 "Fore" 0
XUID: [1021 65 372990543 8613]
StyleMap: 0x0000
FSType: 0
OS2Version: 0
OS2_WeightWidthSlopeOnly: 0
OS2_UseTypoMetrics: 1
CreationTime: 1769291227
ModificationTime: 1770034112
OS2TypoAscent: 0
OS2TypoAOffset: 1
OS2TypoDescent: 0
OS2TypoDOffset: 1
OS2TypoLinegap: 90
OS2WinAscent: 0
OS2WinAOffset: 1
OS2WinDescent: 0
OS2WinDOffset: 1
HheadAscent: 0
HheadAOffset: 1
HheadDescent: 0
HheadDOffset: 1
MarkAttachClasses: 1
DEI: 91125
Encoding: UnicodeFull
UnicodeInterp: none
NameList: AGL For New Fonts
DisplaySize: -48
AntiAlias: 1
FitToEm: 0
WinInfo: 57532 38 13
BeginPrivate: 0
EndPrivate
Grid
-4432.75097656 1500 m 0
 -4432.75097656 -500 l 1024
EndSplineSet
BeginChars: 1114113 52

StartChar: uniE100
Encoding: 57600 57600 0
Width: 1000
Flags: HW
LayerCount: 2
Fore
SplineSet
953.999019553 50 m 0
 953.999019553 47.2374062684 951.762567195 45.0009804473 949 45.0009804473 c 0
 947.720061596 45.0009804473 946.439864611 45.4885505519 945.464466094 46.4644660941 c 2
 608.733398438 383.374023438 l 5
 581.909179688 357.258789062 545.71484375 341.086914062 505.336914062 341.086914062 c 4
 463.678710938 341.086914062 425.6953125 357.182617188 397.639648438 383.557617188 c 5
 52.5315219308 46.460458579 l 2
 51.5461377607 45.4979480544 50.2781847521 45.0009804473 49 45.0009804473 c 0
 46.2374062684 45.0009804473 44.0009804473 47.237432805 44.0009804473 50 c 0
 44.0009804473 51.279938404 44.4774890055 52.5714657936 45.4644660941 53.5355339059 c 2
 390.578125 390.638671875 l 5
 365.00390625 417.986328125 346.000980447 458.501304903 346.000980447 499 c 4
 346.000980447 539.894889049 361.408225923 577.85169646 390.198242188 602.39453125 c 5
 45.4604674686 948.46846916 l 2
 44.488280614 949.444424097 44.0009804473 950.721811355 44.0009804473 952 c 0
 44.0009804473 954.762593732 46.237432805 956.999019553 49 956.999019553 c 0
 50.279938404 956.999019553 51.5598768081 956.511191004 52.5355339059 955.535533906 c 2
 393.76280916 613.549977504 l 5
 420.96327601 640.328283562 457.76343206 657.009761648 498.7825321 657.009761648 c 4
 540.337865613 657.009761648 578.149473826 640.055228838 605.931693225 612.757281084 c 5
 945.468478069 951.539541421 l 2
 946.443630496 952.512526842 947.721815248 952.999019553 949 952.999019553 c 0
 951.762593732 952.999019553 953.999019553 950.762567195 953.999019553 948 c 0
 953.999019553 946.720061596 953.511191004 945.440123192 952.535533906 944.464466094 c 2
 612.840991933 605.5247992 l 5
 637.770248808 577.720491247 656.3359375 537.026367188 656.3359375 497.0859375 c 4
 656.3359375 456.293945312 641.005859375 418.66015625 615.669921875 390.579101562 c 5
 952.539532531 53.5315308402 l 2
 953.513347976 52.5572009518 953.999019553 51.2781886448 953.999019553 50 c 0
492.928929963 500.005634515 m 5
 393.93803661 599.216507142 l 5
 370.283121183 572.555250585 355.999019553 537.089267276 355.999019553 499 c 4
 355.999019553 461.245209712 373.892578125 423.232421875 397.66015625 397.705078125 c 5
 492.928929963 500.005634515 l 5
500.007856722 507.068830361 m 5
 598.85146863 605.692790287 l 5
 572.886529166 631.173854158 537.583995763 647.011707916 498.78017529 647.011707916 c 4
 460.491497526 647.011707916 426.201107097 631.435662519 400.826624221 606.470465111 c 5
 500.007856722 507.068830361 l 5
499.992143278 492.926725205 m 5
 404.72265625 390.625 l 5
 430.974609375 366.056640625 466.461914062 351.084960938 505.336914062 351.084960938 c 4
 542.98828125 351.084960938 576.672851562 366.151367188 601.669921875 390.453125 c 5
 499.992143278 492.926725205 l 5
507.071070037 499.989921051 m 5
 608.595703125 397.668945312 l 5
 632.1328125 423.955078125 646.337890625 459.099609375 646.337890625 497.0859375 c 4
 646.337890625 534.25390625 628.88513807 572.454554453 605.749906627 598.449471826 c 5
 507.071070037 499.989921051 l 5
EndSplineSet
Validated: 1
EndChar

StartChar: uniE101
Encoding: 57601 57601 1
Width: 1000
Flags: H
LayerCount: 2
Fore
SplineSet
722 439.000980447 m 0
 615.035160149 439.000980447 503.999019553 362.321796777 503.999019553 255 c 0
 503.999019553 147.792215814 615.81363846 51.9990195527 723 51.9990195527 c 0
 830.179063659 51.9990195527 942.000980447 145.788718612 942.000980447 253 c 0
 942.000980447 360.28956573 829.002497189 439.000980447 722 439.000980447 c 0
274 442.000980447 m 0
 167.035160149 442.000980447 55.9990195527 365.321796777 55.9990195527 258 c 0
 55.9990195527 150.792215814 167.81363846 54.9990195527 275 54.9990195527 c 0
 382.179063659 54.9990195527 494.000980447 148.788718612 494.000980447 256 c 0
 494.000980447 363.28956573 381.002497189 442.000980447 274 442.000980447 c 0
275 45.0009804473 m 0
 162.187533248 45.0009804473 46.0009804473 145.208054827 46.0009804473 258 c 0
 46.0009804473 370.662046489 160.95349203 451.999019553 274 451.999019553 c 0
 373.358493922 451.999019553 475.810288543 387.598975583 499.097151763 295.434024361 c 1
 522.526950567 386.612200872 622.994443446 448.999019472 722 448.999019553 c 0
 834.999041522 448.999019553 951.999019553 365.702724715 951.999019553 253 c 0
 951.999019553 140.211935754 835.819858702 42.0009804473 723 42.0009804473 c 0
 623.801145911 42.0009804473 521.993404793 119.482388116 498.866736083 214.870368199 c 1
 475.235133443 120.363401603 373.82868223 45.0009804473 275 45.0009804473 c 0
489.00209069 445.051139897 m 2
 489.00209069 450.471690883 493.437769801 454.998039105 499 454.998039105 c 0
 504.45664875 454.998039105 508.998190932 450.614079434 508.99790931 444.948860103 c 2
 506.99790931 50.9488601027 l 2
 506.969967246 45.4442735214 502.505711218 41.0019608946 497 41.0019608946 c 0
 491.54335125 41.0019608946 487.001809068 45.3859205663 487.00209069 51.0511398973 c 2
 489.00209069 445.051139897 l 2
EndSplineSet
Validated: 5
EndChar

StartChar: uniE102
Encoding: 57602 57602 2
Width: 1000
Flags: HW
LayerCount: 2
Fore
SplineSet
718.000976562 935.000976562 m 4
 611.036132812 935.000976562 500 858.322265625 500 751 c 4
 500 643.791992188 611.814453125 547.999023438 719.000976562 547.999023438 c 4
 826.1796875 547.999023438 938.001953125 641.7890625 938.001953125 749 c 4
 938.001953125 856.290039062 825.00390625 935.000976562 718.000976562 935.000976562 c 4
270.000976562 938.000976562 m 4
 163.036132812 938.000976562 52 861.322265625 52 754 c 4
 52 646.791992188 163.814453125 550.999023438 271.000976562 550.999023438 c 4
 378.1796875 550.999023438 490.001953125 644.7890625 490.001953125 752 c 4
 490.001953125 859.290039062 377.00390625 938.000976562 270.000976562 938.000976562 c 4
271.000976562 541.000976562 m 4
 158.188476562 541.000976562 42.001953125 641.208007812 42.001953125 754 c 4
 42.001953125 866.662109375 156.954101562 947.999023438 270.000976562 947.999023438 c 4
 369.359375 947.999023438 471.811523438 883.598632812 495.09765625 791.43359375 c 5
 518.528320312 882.612304688 618.995117188 944.999023438 718.000976562 944.999023438 c 4
 831 944.999023438 948 861.703125 948 749 c 4
 948 636.211914062 831.821289062 538.000976562 719.000976562 538.000976562 c 4
 619.801757812 538.000976562 517.994140625 615.482421875 494.868164062 710.870117188 c 5
 471.236328125 616.36328125 369.830078125 541.000976562 271.000976562 541.000976562 c 4
485.002929688 941.05078125 m 6
 485.002929688 946.471679688 489.438476562 950.998046875 495.000976562 950.998046875 c 4
 500.458007812 950.998046875 504.999023438 946.614257812 504.999023438 940.94921875 c 6
 502.999023438 546.94921875 l 6
 502.970703125 541.444335938 498.506835938 537.001953125 493.000976562 537.001953125 c 4
 487.543945312 537.001953125 483.002929688 541.385742188 483.002929688 547.05078125 c 6
 485.002929688 941.05078125 l 6
EndSplineSet
Validated: 5
EndChar

StartChar: uniE103
Encoding: 57603 57603 3
Width: 500
Flags: HW
LayerCount: 2
Fore
SplineSet
250 445.000980447 m 0
 219.937783551 445.000980447 41.1100236965 444.000980447 39 444.000980447 c 0
 36.2374062684 444.000980447 34.0009804473 446.237432805 34.0009804473 449 c 0
 34.0009804473 451.762593732 36.237432805 453.999019553 39 453.999019553 c 0
 41.1100236965 453.999019553 219.842170172 454.999019553 250 454.999019553 c 0
 362.764627039 454.999019553 454.999019553 362.762628379 454.999019553 250 c 0
 454.999019553 137.247224451 361.776781127 45.0009804473 250 45.0009804473 c 0
 218.947905943 45.0009804473 42.1000238094 44.0009804473 40 44.0009804473 c 0
 37.2374062684 44.0009804473 35.0009804473 46.237432805 35.0009804473 49 c 0
 35.0009804473 51.7625937316 37.237432805 53.9990195527 40 53.9990195527 c 0
 42.1000238094 53.9990195527 218.852047603 54.9990195527 250 54.9990195527 c 0
 356.225725438 54.9990195527 445.000980447 142.755282249 445.000980447 250 c 0
 445.000980447 357.234140278 357.238602971 445.000980447 250 445.000980447 c 0
EndSplineSet
Validated: 1
EndChar

StartChar: uniE115
Encoding: 57621 57621 4
Width: 1000
Flags: HW
LayerCount: 2
Fore
SplineSet
50.011181681 239.0019671 m 2
 44.4626546894 239.0019671 40.0019608946 243.483374448 40.0019608946 249 c 0
 40.0019608946 254.520998543 44.4682370159 258.991905729 49.988818319 258.9980329 c 2
 951 259.998039105 l 2
 956.525187463 259.998039105 960.998039105 255.52513439 960.998039105 250 c 0
 960.998039105 244.479001457 956.531762984 240.008094271 951.011181681 240.0019671 c 2
 50.011181681 239.0019671 l 2
EndSplineSet
Validated: 524289
EndChar

StartChar: uniE104
Encoding: 57604 57604 5
Width: 500
Flags: HW
LayerCount: 2
Fore
SplineSet
248 950 m 4
 217.9375 950 39.1103515625 949 37 949 c 4
 34.2373046875 949 32.0009765625 951.236328125 32.0009765625 953.999023438 c 4
 32.0009765625 956.76171875 34.2373046875 958.998046875 37 958.998046875 c 4
 39.1103515625 958.998046875 217.841796875 959.998046875 248 959.998046875 c 4
 360.764648438 959.998046875 452.999023438 867.76171875 452.999023438 754.999023438 c 4
 452.999023438 642.24609375 359.776367188 550 248 550 c 4
 216.948242188 550 40.099609375 549 38 549 c 4
 35.2373046875 549 33.0009765625 551.236328125 33.0009765625 553.999023438 c 4
 33.0009765625 556.76171875 35.2373046875 558.998046875 38 558.998046875 c 4
 40.099609375 558.998046875 216.8515625 559.998046875 248 559.998046875 c 4
 354.225585938 559.998046875 443.000976562 647.75390625 443.000976562 754.999023438 c 4
 443.000976562 862.233398438 355.23828125 950 248 950 c 4
EndSplineSet
Validated: 1
EndChar

StartChar: uniE105
Encoding: 57605 57605 6
Width: 500
Flags: HW
LayerCount: 2
Fore
SplineSet
254.999019553 57.0627046003 m 1
 358.295350259 59.696999663 442.316778453 143.722508739 444.937934814 247.026040326 c 1
 254.999019553 247.968665216 l 1
 254.999019553 57.0627046003 l 1
254.999019553 446.937297355 m 1
 254.999019553 257.966828386 l 1
 444.936651365 257.024209866 l 1
 442.289553527 360.300657243 358.282682584 444.303404043 254.999019553 446.937297355 c 1
250 456.999019553 m 0
 362.764627039 456.999019553 454.999019553 364.762628379 454.999019553 252 c 0
 454.999019553 139.235372961 362.762628379 47.0009804473 250 47.0009804473 c 0
 138.101008391 47.0009804473 46.4182612407 137.826705294 45.0172535981 249.406800909 c 0
 43.2562134732 250.169684064 42.0009805215 251.92885021 42.0009804473 254 c 0
 42.0009804473 256.069903884 43.262567757 257.875869395 45.107415296 258.627357734 c 0
 48.6361184386 368.356091457 139.454570563 456.999019553 250 456.999019553 c 0
245.000980447 446.9372954 m 1
 142.367005559 444.31989194 58.7615369744 361.351720016 55.1225114818 258.958771355 c 1
 245.000980447 258.016446446 l 1
 245.000980447 446.9372954 l 1
245.000980447 57.0627026449 m 1
 245.000980447 248.018283276 l 1
 55.0225372784 248.961104334 l 1
 56.6359187499 144.777940361 141.056283902 59.7134533347 245.000980447 57.0627026449 c 1
EndSplineSet
Validated: 1
EndChar

StartChar: uniE106
Encoding: 57606 57606 7
Width: 500
Flags: HW
LayerCount: 2
Fore
SplineSet
255.999023438 550.063476562 m 5
 359.294921875 552.698242188 443.31640625 636.723632812 445.9375 740.02734375 c 5
 255.999023438 740.969726562 l 5
 255.999023438 550.063476562 l 5
255.999023438 939.938476562 m 5
 255.999023438 750.967773438 l 5
 445.936523438 750.025390625 l 5
 443.290039062 853.301757812 359.282226562 937.3046875 255.999023438 939.938476562 c 5
251 950 m 4
 363.764648438 950 455.999023438 857.763671875 455.999023438 745.000976562 c 4
 455.999023438 632.236328125 363.762695312 540.001953125 251 540.001953125 c 4
 139.100585938 540.001953125 47.41796875 630.828125 46.017578125 742.408203125 c 4
 44.255859375 743.170898438 43.0009765625 744.9296875 43.0009765625 747.000976562 c 4
 43.0009765625 749.071289062 44.2626953125 750.876953125 46.107421875 751.627929688 c 4
 49.6357421875 861.357421875 140.454101562 950 251 950 c 4
246.000976562 939.938476562 m 5
 143.3671875 937.321289062 59.76171875 854.352539062 56.1220703125 751.959960938 c 5
 246.000976562 751.017578125 l 5
 246.000976562 939.938476562 l 5
246.000976562 550.063476562 m 5
 246.000976562 741.01953125 l 5
 56.0224609375 741.961914062 l 5
 57.6357421875 637.779296875 142.056640625 552.71484375 246.000976562 550.063476562 c 5
EndSplineSet
Validated: 1
EndChar

StartChar: uniE107
Encoding: 57607 57607 8
Width: 1000
Flags: HW
LayerCount: 2
Fore
SplineSet
950 958.498529329 m 0
 954.13260029 958.498529329 957.498534732 955.158523603 957.498524675 950.991613739 c 2
 956.498524675 49.9916137392 l 2
 956.493929008 45.8509179437 953.140489087 42.5014706709 949 42.5014706709 c 2
 49 42.5014706709 l 2
 44.8561094026 42.5014706709 41.5014706709 45.8561492075 41.5014706709 50 c 0
 41.5014706709 54.1438905974 44.8561492075 57.4985293291 49 57.4985293291 c 2
 941.509788469 57.4985293291 l 1
 942.501475325 951.008386261 l 2
 942.506070992 955.149082056 945.859510913 958.498529329 950 958.498529329 c 0
EndSplineSet
Validated: 1
EndChar

StartChar: uniE108
Encoding: 57608 57608 9
Width: 1000
Flags: HW
LayerCount: 2
Fore
SplineSet
956.498524675 49.9916137392 m 2
 956.498524675 45.8652051379 953.15022649 42.5014706709 949 42.5014706709 c 0
 944.86739971 42.5014706709 941.501465268 45.8414763974 941.501475325 50.0083862608 c 2
 942.49312505 943.484788626 l 1
 49 941.501470671 l 2
 44.8561094026 941.501470671 41.5014706709 944.856149207 41.5014706709 949 c 0
 41.5014706709 953.13760767 44.8462106461 956.489327546 48.9832275123 956.498510714 c 2
 950 958.498529329 l 2
 954.13260029 958.498529329 957.498534732 955.158523603 957.498524675 950.991613739 c 2
 956.498524675 49.9916137392 l 2
EndSplineSet
Validated: 524289
EndChar

StartChar: uniE109
Encoding: 57609 57609 10
Width: 1000
Flags: HW
LayerCount: 2
Fore
SplineSet
956.498435818 48.9624083383 m 2
 956.498435818 44.8953041405 953.170986636 41.5014706709 949 41.5014706709 c 0
 944.906842621 41.5014706709 941.501361292 44.7904142202 941.501564182 49.0375916617 c 2
 943.464071043 443.501470671 l 1
 51 443.501470671 l 2
 46.8561094026 443.501470671 43.5014706709 446.856149207 43.5014706709 451 c 0
 43.5014706709 455.143890597 46.8561492075 458.498529329 51 458.498529329 c 2
 951 458.498529329 l 2
 955.093157379 458.498529329 958.498638708 455.20958578 958.498435818 450.962408338 c 2
 956.498435818 48.9624083383 l 2
EndSplineSet
Validated: 524289
EndChar

StartChar: uniE10A
Encoding: 57610 57610 11
Width: 1000
Flags: HW
LayerCount: 2
Fore
SplineSet
957.047352672 549.988568968 m 6
 957.047352672 545.862326408 953.69906841 542.498540983 949.548828125 542.498540983 c 4
 945.416153835 542.498540983 942.050293244 545.838574064 942.050303578 550.005571657 c 6
 942.493010459 943.484788372 l 5
 49 941.501470671 l 6
 44.8561094026 941.501470671 41.5014706709 944.856149207 41.5014706709 949 c 4
 41.5014706709 953.13760767 44.8462106461 956.489327546 48.9832275123 956.498510714 c 6
 950 958.498529329 l 6
 954.13267429 958.498529329 957.498534881 955.158496249 957.498524547 950.991498655 c 6
 957.047352672 549.988568968 l 6
EndSplineSet
Validated: 524289
EndChar

StartChar: uniE10B
Encoding: 57611 57611 12
Width: 1000
Flags: HW
LayerCount: 2
Fore
SplineSet
56.4985293291 450 m 0
 56.4985293291 203.414292846 255.073615681 53.4985293291 500 53.4985293291 c 0
 742.503346944 53.4985293291 941.435388329 200.457701652 945.439854992 442.53029667 c 1
 497.966713894 444.501543988 l 2
 493.836160646 444.519740258 490.501470671 447.868858216 490.501470671 452 c 0
 490.501470671 456.099135951 493.798089021 459.498614989 498.033286106 459.498456012 c 2
 952.033286106 457.498456012 l 2
 952.193410815 457.498456012 952.353517176 457.493247621 952.513340594 457.48284261 c 0
 952.675376448 457.493302502 952.837688089 457.498532449 952.99999973 457.498532449 c 0
 957.143887273 457.498532449 960.498529329 454.143852171 960.498529329 450 c 0
 960.498529329 196.56956573 755.057206161 38.5014706709 500 38.5014706709 c 0
 244.959562906 38.5014706709 41.5014706709 196.566466639 41.5014706709 450 c 0
 41.5014706709 454.143890597 44.8561492075 457.498529329 49 457.498529329 c 0
 53.1438905974 457.498529329 56.4985293291 454.143850793 56.4985293291 450 c 0
EndSplineSet
Validated: 524289
EndChar

StartChar: uniE10C
Encoding: 57612 57612 13
Width: 1000
Flags: HW
LayerCount: 2
Fore
SplineSet
60.4985293291 951 m 0
 60.4985293291 704.414292846 259.073615681 554.498529329 504 554.498529329 c 0
 746.503346944 554.498529329 945.435388329 701.457701652 949.439854992 943.53029667 c 1
 501.966713894 945.501543988 l 2
 497.836160646 945.519740258 494.501470671 948.868858216 494.501470671 953 c 0
 494.501470671 957.099135951 497.798089021 960.498614989 502.033286106 960.498456012 c 2
 956.033286106 958.498456012 l 2
 956.193410815 958.498456012 956.353517176 958.493247621 956.513340594 958.48284261 c 0
 956.675376448 958.493302502 956.837688089 958.498532449 956.99999973 958.498532449 c 0
 961.143887273 958.498532449 964.498529329 955.143852171 964.498529329 951 c 0
 964.498529329 697.56956573 759.057206161 539.501470671 504 539.501470671 c 0
 248.959562906 539.501470671 45.5014706709 697.566466639 45.5014706709 951 c 0
 45.5014706709 955.143890597 48.8561492075 958.498529329 53 958.498529329 c 0
 57.1438905974 958.498529329 60.4985293291 955.143850793 60.4985293291 951 c 0
EndSplineSet
Validated: 524289
EndChar

StartChar: uniE10D
Encoding: 57613 57613 14
Width: 500
Flags: HW
LayerCount: 2
Fore
SplineSet
49.9622203851 444.501565119 m 2
 45.8953853132 444.501565119 42.5014706709 447.828991325 42.5014706709 452 c 0
 42.5014706709 456.093280842 45.7904609672 459.498639792 50.0377796149 459.498434881 c 2
 450.037779615 457.498434881 l 2
 454.166654236 457.477790508 457.498529329 454.129299581 457.498529329 450 c 0
 457.498529329 448.080092394 456.766786506 446.160184788 455.269120589 444.662733655 c 2
 56.2691205892 50.6627336552 l 2
 54.8099938029 49.2218916657 52.9049969014 48.5014706709 51 48.5014706709 c 0
 46.8561094026 48.5014706709 43.5014706709 51.8561492075 43.5014706709 56 c 0
 43.5014706709 57.9199076061 44.2332134943 59.8398152121 45.7308794108 61.3372663448 c 2
 431.824129922 442.592255572 l 1
 49.9622203851 444.501565119 l 2
EndSplineSet
Validated: 524289
EndChar

StartChar: uniE10E
Encoding: 57614 57614 15
Width: 500
Flags: HW
LayerCount: 2
Fore
SplineSet
47.9622203851 944.501565119 m 2
 43.8953853132 944.501565119 40.5014706709 947.828991325 40.5014706709 952 c 0
 40.5014706709 956.093280842 43.7904609672 959.498639792 48.0377796149 959.498434881 c 2
 448.037779615 957.498434881 l 2
 452.166654236 957.477790508 455.498529329 954.129299581 455.498529329 950 c 0
 455.498529329 948.080092394 454.766786506 946.160184788 453.269120589 944.662733655 c 2
 54.2691205892 550.662733655 l 2
 52.8099938029 549.221891666 50.9049969014 548.501470671 49 548.501470671 c 0
 44.8561094026 548.501470671 41.5014706709 551.856149207 41.5014706709 556 c 0
 41.5014706709 557.919907606 42.2332134943 559.839815212 43.7308794108 561.337266345 c 2
 429.824129922 942.592255572 l 1
 47.9622203851 944.501565119 l 2
EndSplineSet
Validated: 524289
EndChar

StartChar: uniE10F
Encoding: 57615 57615 16
Width: 500
Flags: HW
LayerCount: 2
Fore
SplineSet
48.9496271801 243.002086826 m 2
 43.5271804176 243.002086826 39.0019608946 247.4386551 39.0019608946 253 c 0
 39.0019608946 258.457707789 43.3872812896 262.998186389 49.0503728199 262.997913174 c 2
 449.05037282 260.997913174 l 2
 454.555538982 260.970387343 458.998039105 256.505732774 458.998039105 251 c 0
 458.998039105 245.542292211 454.61271871 241.001813611 448.94962718 241.002086826 c 2
 48.9496271801 243.002086826 l 2
EndSplineSet
Validated: 524289
EndChar

StartChar: uniE110
Encoding: 57616 57616 17
Width: 500
Flags: HW
LayerCount: 2
Fore
SplineSet
49.9496271801 744.002086826 m 2
 44.5271804176 744.002086826 40.0019608946 748.4386551 40.0019608946 754 c 0
 40.0019608946 759.457707789 44.3872812896 763.998186389 50.0503728199 763.997913174 c 2
 450.05037282 761.997913174 l 2
 455.555538982 761.970387343 459.998039105 757.505732774 459.998039105 752 c 0
 459.998039105 746.542292211 455.61271871 742.001813611 449.94962718 742.002086826 c 2
 49.9496271801 744.002086826 l 2
EndSplineSet
Validated: 524289
EndChar

StartChar: uniE111
Encoding: 57617 57617 18
Width: 1000
Flags: HW
LayerCount: 2
Fore
SplineSet
49.0167538931 444.501489245 m 2
 44.8378583412 444.501489245 41.5014706709 447.86891614 41.5014706709 452 c 0
 41.5014706709 456.137612001 44.8462190214 459.489337746 48.9832461069 459.498510755 c 2
 500.083027784 460.498073147 l 2
 594.568778394 459.459768196 542.303474151 455.498529329 636 455.498529329 c 0
 817.387021558 455.498529329 957.498529329 232.362557757 957.498529329 51 c 0
 957.498529329 46.8561094026 954.143850793 43.5014706709 950 43.5014706709 c 0
 945.856109403 43.5014706709 942.501470671 46.8561492075 942.501470671 51 c 0
 942.501470671 223.669662507 808.577030188 440.501470671 636 440.501470671 c 0
 545.418291074 440.501470671 589.983365942 445.701762213 499.916972216 445.501926853 c 2
 49.0167538931 444.501489245 l 2
EndSplineSet
Validated: 524321
EndChar

StartChar: uniE112
Encoding: 57618 57618 19
Width: 1000
Flags: HW
LayerCount: 2
Fore
SplineSet
49.0167538931 941.501489245 m 6
 44.8378583412 941.501489245 41.5014706709 944.86891614 41.5014706709 949 c 4
 41.5014706709 953.137612001 44.8462190214 956.489337746 48.9832461069 956.498510755 c 6
 500.083027784 957.498073147 l 6
 594.568778393 956.459768196 542.303474151 952.498529329 636 952.498529329 c 4
 817.387021558 952.498529329 957.498529329 729.362557757 957.498529329 548 c 4
 957.498529329 543.856109403 954.143850793 540.501470671 950 540.501470671 c 4
 945.856109403 540.501470671 942.501470671 543.856149207 942.501470671 548 c 4
 942.501470671 720.669662507 808.577030188 937.501470671 636 937.501470671 c 4
 545.418291074 937.501470671 589.983365942 942.701762213 499.916972216 942.501926853 c 6
 49.0167538931 941.501489245 l 6
EndSplineSet
Validated: 524321
EndChar

StartChar: uniE113
Encoding: 57619 57619 20
Width: 500
Flags: HW
LayerCount: 2
Fore
SplineSet
50.995039456 42.5031593252 m 0
 46.8523920484 42.5031593252 43.5014706709 45.8590630474 43.5014706709 50 c 0
 43.5014706709 51.9139955742 44.2287138756 53.8279911485 45.6832002848 55.2897682164 c 2
 240.417389367 251.000068522 l 1
 46.6831325559 445.710299853 l 2
 45.2286912993 447.172068269 44.5014706709 449.086034135 44.5014706709 451 c 0
 44.5014706709 455.143890597 47.8561492075 458.498529329 52 458.498529329 c 0
 53.9199076061 458.498529329 55.8398152121 457.766786506 57.3033008589 456.303300859 c 2
 250.997558061 261.633270643 l 1
 444.683200285 456.289768216 l 2
 446.155130824 457.761715668 448.081154113 458.496840675 450.004960544 458.496840675 c 0
 454.147607952 458.496840675 457.498529329 455.140936953 457.498529329 451 c 0
 457.498529329 449.086004426 456.771286124 447.172008852 455.316799715 445.710231784 c 2
 261.577610644 250.999918958 l 1
 454.316867444 57.2897001471 l 2
 455.771308701 55.8279317305 456.498529329 53.9139658653 456.498529329 52 c 0
 456.498529329 47.8561094026 453.143850793 44.5014706709 449 44.5014706709 c 0
 447.080092394 44.5014706709 445.160184788 45.2332134943 443.696699141 46.6966991411 c 2
 250.99744195 240.366716837 l 1
 56.3167997152 44.7102317836 l 2
 54.8448691757 43.2382843316 52.918845887 42.5031593252 50.995039456 42.5031593252 c 0
EndSplineSet
Validated: 524289
EndChar

StartChar: uniE114
Encoding: 57620 57620 21
Width: 500
Flags: HW
LayerCount: 2
Fore
SplineSet
453.498529329 552 m 4
 453.498529329 547.856109403 450.143850793 544.501470671 446 544.501470671 c 4
 444.080092394 544.501470671 442.160184788 545.233213494 440.696699141 546.696699141 c 6
 247.99744195 740.366716837 l 5
 53.3167997152 544.710231784 l 6
 51.8448691757 543.238284332 49.918845887 542.503159325 47.995039456 542.503159325 c 4
 43.8523920484 542.503159325 40.5014706709 545.859063047 40.5014706709 550 c 4
 40.5014706709 551.913995574 41.2287138756 553.827991148 42.6832002848 555.289768216 c 6
 237.417389367 751.000068522 l 5
 43.6831325559 945.710299853 l 6
 42.2286912993 947.172068269 41.5014706709 949.086034135 41.5014706709 951 c 4
 41.5014706709 955.143890597 44.8561492075 958.498529329 49 958.498529329 c 4
 50.9199076061 958.498529329 52.8398152121 957.766786506 54.3033008589 956.303300859 c 6
 247.997558061 761.633270643 l 5
 441.683200285 956.289768216 l 6
 443.155130824 957.761715668 445.081154113 958.496840675 447.004960544 958.496840675 c 4
 451.147607952 958.496840675 454.498529329 955.140936953 454.498529329 951 c 4
 454.498529329 949.086004426 453.771286124 947.172008852 452.316799715 945.710231784 c 6
 258.577610644 750.999918958 l 5
 451.316867444 557.289700147 l 6
 452.771308701 555.827931731 453.498529329 553.913965865 453.498529329 552 c 4
EndSplineSet
Validated: 524289
EndChar

StartChar: uniE116
Encoding: 57622 57622 22
Width: 1000
Flags: HW
LayerCount: 2
Fore
SplineSet
51.011181681 740.0019671 m 2
 45.4626546894 740.0019671 41.0019608946 744.483374448 41.0019608946 750 c 0
 41.0019608946 755.520998543 45.4682370159 759.991905729 50.988818319 759.9980329 c 2
 952 760.998039105 l 2
 957.525187463 760.998039105 961.998039105 756.52513439 961.998039105 751 c 0
 961.998039105 745.479001457 957.531762984 741.008094271 952.011181681 741.0019671 c 2
 51.011181681 740.0019671 l 2
EndSplineSet
Validated: 524289
EndChar

StartChar: uniE117
Encoding: 57623 57623 23
Width: 1000
Flags: HW
LayerCount: 2
Fore
SplineSet
99.9933859413 90.0042124336 m 0
 94.4698560645 90.0042124336 90.0019608946 94.4787507299 90.0019608946 100 c 0
 90.0019608946 102.551994099 90.9716185008 105.103988198 92.9109337131 107.053024289 c 2
 890.910933713 909.053024289 l 2
 892.873507766 911.015620891 895.441538817 911.995787566 898.006614059 911.995787566 c 0
 903.530143935 911.995787566 907.998039105 907.52124927 907.998039105 902 c 0
 907.998039105 899.448005901 907.028381499 896.896011802 905.089066287 894.946975711 c 2
 107.089066287 92.9469757114 l 2
 105.126492234 90.9843791088 102.558461183 90.0042124336 99.9933859413 90.0042124336 c 0
EndSplineSet
Validated: 524289
EndChar

StartChar: uniE118
Encoding: 57624 57624 24
Width: 500
Flags: HW
LayerCount: 2
Fore
SplineSet
457.498529329 51 m 0
 457.498529329 46.8561094026 454.143850793 43.5014706709 450 43.5014706709 c 0
 449.254064211 43.5014706709 445.277641843 43.690706906 443.297968084 47.630356177 c 2
 249.067236793 434.159174667 l 1
 57.7284944775 45.6835463291 l 2
 56.5040738396 43.1976013977 53.9418245133 41.5014706709 51 41.5014706709 c 0
 46.8561094026 41.5014706709 43.5014706709 44.8561492075 43.5014706709 49 c 0
 43.5014706709 50.1370921379 43.7581489548 51.2741842758 44.2715055225 52.3164536709 c 2
 242.271505523 454.316453671 l 2
 243.49592616 456.802398602 246.058175487 458.498529329 249 458.498529329 c 0
 249.745935789 458.498529329 253.722358157 458.309293094 255.702031916 454.369643823 c 2
 456.702031916 54.369643823 l 2
 457.233030191 53.3129308371 457.498529329 52.1564654186 457.498529329 51 c 0
EndSplineSet
Validated: 524289
EndChar

StartChar: uniE119
Encoding: 57625 57625 25
Width: 500
Flags: HW
LayerCount: 2
Fore
SplineSet
457.498529329 551 m 0
 457.498529329 546.856109403 454.143850793 543.501470671 450 543.501470671 c 0
 449.256161761 543.501470671 445.272983098 543.69019299 443.294644705 547.636978084 c 2
 250.058910017 933.142268787 l 1
 58.7284944775 544.683546329 l 2
 57.5040738396 542.197601398 54.9418245133 540.501470671 52 540.501470671 c 0
 47.8561094026 540.501470671 44.5014706709 543.856149207 44.5014706709 548 c 0
 44.5014706709 549.137092138 44.7581489548 550.274184276 45.2715055225 551.316453671 c 2
 243.271505523 953.316453671 l 2
 244.49592616 955.802398602 247.058175487 957.498529329 250 957.498529329 c 0
 250.743838239 957.498529329 254.727016902 957.30980701 256.705355295 953.363021916 c 2
 456.705355295 554.363021916 l 2
 457.234137984 553.30810045 457.498529329 552.154050225 457.498529329 551 c 0
EndSplineSet
Validated: 524289
EndChar

StartChar: uniE11A
Encoding: 57626 57626 26
Width: 500
Flags: HW
LayerCount: 2
Fore
SplineSet
449 457.498529329 m 0
 453.143890597 457.498529329 456.498529329 454.143850793 456.498529329 450 c 0
 456.498529329 448.853235938 456.237465946 447.706471876 455.715339179 446.656970838 c 2
 256.715339179 46.6569708378 l 2
 255.486096437 44.186131154 252.931986494 42.5014706709 250 42.5014706709 c 0
 249.256162881 42.5014706709 245.27295733 42.6901951861 243.294628054 46.6370113026 c 2
 42.2946280543 447.637011303 l 2
 41.7658564654 448.691923776 41.5014706709 449.845961888 41.5014706709 451 c 0
 41.5014706709 455.143890597 44.8561492075 458.498529329 49 458.498529329 c 0
 49.7438371186 458.498529329 53.7270426704 458.309804814 55.7053719457 454.362988697 c 2
 249.974825482 66.7905963197 l 1
 442.284660821 453.343029162 l 2
 443.513903563 455.813868846 446.068013506 457.498529329 449 457.498529329 c 0
EndSplineSet
Validated: 524289
EndChar

StartChar: uniE11B
Encoding: 57627 57627 27
Width: 500
Flags: HW
LayerCount: 2
Fore
SplineSet
449 956.498529329 m 0
 453.143890597 956.498529329 456.498529329 953.143850793 456.498529329 949 c 0
 456.498529329 947.853235938 456.237465946 946.706471876 455.715339179 945.656970838 c 2
 256.715339179 545.656970838 l 2
 255.486096437 543.186131154 252.931986494 541.501470671 250 541.501470671 c 0
 249.256162881 541.501470671 245.27295733 541.690195186 243.294628054 545.637011303 c 2
 42.2946280543 946.637011303 l 2
 41.7658564654 947.691923776 41.5014706709 948.845961888 41.5014706709 950 c 0
 41.5014706709 954.143890597 44.8561492075 957.498529329 49 957.498529329 c 0
 49.7438371186 957.498529329 53.7270426704 957.309804814 55.7053719457 953.362988697 c 2
 249.974825482 565.79059632 l 1
 442.284660821 952.343029162 l 2
 443.513903563 954.813868846 446.068013506 956.498529329 449 956.498529329 c 0
EndSplineSet
Validated: 524289
EndChar

StartChar: uniE11C
Encoding: 57628 57628 28
Width: 500
Flags: HW
LayerCount: 2
Fore
SplineSet
250 59.4985293291 m 0
 354.657471782 59.4985293291 442.501470671 242.85945553 442.501470671 349 c 0
 442.501470671 349.02846265 442.501944635 349.056888064 442.501944635 349.085275413 c 2
 443.426857459 442.501470671 l 1
 58.4239218268 442.501470671 l 1
 57.4981515587 349.924443861 l 2
 57.4981515587 349.782087436 57.4913509211 349.640693352 57.482127816 349.500365695 c 0
 57.493003213 349.334990706 57.498526608 349.168144948 57.4985293291 349 c 0
 57.4985293291 242.86168153 145.341208498 59.4985293291 250 59.4985293291 c 0
457.498525957 348.962254345 m 2
 457.478161892 234.980842229 365.227712492 44.5014706709 250 44.5014706709 c 0
 134.757919571 44.5014706709 42.5014706709 235.025620721 42.5014706709 349 c 0
 42.5014706709 349.178656188 42.5077061594 349.35584536 42.5199692022 349.531361776 c 0
 42.5079273464 349.710646494 42.5018160535 349.892096863 42.5018484413 350.075556139 c 2
 43.5018484413 450.075556139 l 2
 43.5429803081 454.188742811 46.884655427 457.498529329 51 457.498529329 c 2
 451 457.498529329 l 2
 455.041802219 457.498529329 458.498966631 454.275370085 458.498159002 449.925191861 c 2
 457.498525957 348.962254345 l 2
EndSplineSet
Validated: 524289
EndChar

StartChar: uniE11D
Encoding: 57629 57629 29
Width: 500
Flags: HW
LayerCount: 2
Fore
SplineSet
57.4985293291 847 m 0
 57.4985293291 740.86168153 145.341208498 557.498529329 250 557.498529329 c 0
 354.64771399 557.498529329 442.501305628 740.822781492 442.501840998 847.074808139 c 1
 443.426857459 940.501470671 l 1
 58.4239218268 940.501470671 l 1
 57.4981515587 847.924443861 l 2
 57.4981515587 847.773192504 57.4933682269 847.621978309 57.4838314733 847.471024531 c 0
 57.4936293823 847.314183017 57.4985283367 847.157091477 57.4985293291 847 c 0
451 955.498529329 m 2
 455.041802219 955.498529329 458.498966631 952.275370085 458.498159002 947.925191861 c 2
 457.498525972 846.962255895 l 1
 457.478253886 732.981522917 365.22801207 542.501470671 250 542.501470671 c 0
 134.757919571 542.501470671 42.5014706709 733.025620721 42.5014706709 847 c 0
 42.5014706709 847.166766375 42.5069916333 847.333532749 42.5180335581 847.5 c 0
 42.4989672957 847.787441578 42.4989672957 847.787441578 43.5018484413 948.075556139 c 0
 43.5429803081 952.188742811 46.884655427 955.498529329 51 955.498529329 c 2
 451 955.498529329 l 2
EndSplineSet
Validated: 524321
EndChar

StartChar: uniE11E
Encoding: 57630 57630 30
Width: 500
Flags: HW
LayerCount: 2
Fore
SplineSet
450 42.5014706709 m 0
 445.856109403 42.5014706709 442.501470671 45.8561492075 442.501470671 50 c 2
 442.501470671 371.735181607 l 1
 411.703743565 295.575736513 336.87414039 241.501470671 250 241.501470671 c 0
 135.855219414 241.501470671 42.5014706709 334.853897918 42.5014706709 449 c 0
 42.5014706709 453.143890597 45.8561492075 456.498529329 50 456.498529329 c 0
 54.1438905974 456.498529329 57.4985293291 453.143850793 57.4985293291 449 c 0
 57.4985293291 343.146913606 144.143972025 256.498529329 250 256.498529329 c 0
 355.853086394 256.498529329 442.501470671 343.143972025 442.501470671 449 c 0
 442.501470671 453.143890597 445.856149207 456.498529329 450 456.498529329 c 0
 454.143890597 456.498529329 457.498529329 453.143850793 457.498529329 449 c 2
 457.498529329 50 l 2
 457.498529329 45.8561094026 454.143850793 42.5014706709 450 42.5014706709 c 0
EndSplineSet
Validated: 524289
EndChar

StartChar: uniE11F
Encoding: 57631 57631 31
Width: 500
Flags: HW
LayerCount: 2
Fore
SplineSet
450 543.501470671 m 0
 445.856109403 543.501470671 442.501470671 546.856149207 442.501470671 551 c 2
 442.501470671 872.735181607 l 1
 411.703743565 796.575736513 336.87414039 742.501470671 250 742.501470671 c 0
 135.855219414 742.501470671 42.5014706709 835.853897918 42.5014706709 950 c 0
 42.5014706709 954.143890597 45.8561492075 957.498529329 50 957.498529329 c 0
 54.1438905974 957.498529329 57.4985293291 954.143850793 57.4985293291 950 c 0
 57.4985293291 844.146913606 144.143972025 757.498529329 250 757.498529329 c 0
 355.853086394 757.498529329 442.501470671 844.143972025 442.501470671 950 c 0
 442.501470671 954.143890597 445.856149207 957.498529329 450 957.498529329 c 0
 454.143890597 957.498529329 457.498529329 954.143850793 457.498529329 950 c 2
 457.498529329 551 l 2
 457.498529329 546.856109403 454.143850793 543.501470671 450 543.501470671 c 0
EndSplineSet
Validated: 524289
EndChar

StartChar: uniE120
Encoding: 57632 57632 32
Width: 500
Flags: HW
LayerCount: 2
Fore
SplineSet
250 169.498529329 m 0
 355.853086394 169.498529329 442.501470671 256.143972025 442.501470671 362 c 0
 442.501470671 366.143890597 445.856149207 369.498529329 450 369.498529329 c 0
 454.143890597 369.498529329 457.498529329 366.143850793 457.498529329 362 c 0
 457.498529329 247.855219414 364.146102082 154.501470671 250 154.501470671 c 0
 163.126703427 154.501470671 88.2964580401 208.575172653 57.4985293291 284.735058872 c 1
 57.4985293291 50 l 2
 57.4985293291 45.8561094026 54.1438507925 42.5014706709 50 42.5014706709 c 0
 45.8561094026 42.5014706709 42.5014706709 45.8561492075 42.5014706709 50 c 2
 42.5014706709 362 l 2
 42.5014706709 366.143890597 45.8561492075 369.498529329 50 369.498529329 c 0
 54.1438905974 369.498529329 57.4985293291 366.143850793 57.4985293291 362 c 0
 57.4985293291 256.146913606 144.143972025 169.498529329 250 169.498529329 c 0
  Spiro
    250 169.499 o
    346.868 195.833 o
    416.167 265.131 o
    442.501 362 o
    443.523 365.782 o
    446.218 368.477 o
    450 369.499 o
    453.782 368.477 o
    456.477 365.782 o
    457.499 362 o
    429.123 257.565 o
    354.435 182.878 o
    250 154.501 o
    168.401 171.309 o
    101.733 217.18 o
    57.4985 284.735 v
    57.4985 50 ]
    56.4773 46.2175 o
    53.7824 43.5227 o
    50 42.5015 o
    46.2175 43.5227 o
    43.5227 46.2176 o
    42.5015 50 [
    42.5015 362 ]
    43.5227 365.782 o
    46.2176 368.477 o
    50 369.499 o
    53.7825 368.477 o
    56.4773 365.782 o
    57.4985 362 o
    83.8325 265.132 o
    153.131 195.833 o
    0 0 z
  EndSpiro
EndSplineSet
Validated: 524289
EndChar

StartChar: uniE122
Encoding: 57634 57634 33
Width: 500
Flags: HW
LayerCount: 2
Fore
SplineSet
419 353.498529329 m 0
 423.143890597 353.498529329 426.498529329 350.143850793 426.498529329 346 c 2
 426.498529329 240 l 2
 426.498529329 235.763934356 426.365437346 231.559188665 426.103203682 227.389712613 c 2
 425.511441214 49.8609722125 l 2
 425.661145352 49.7305315024 425.80402186 49.6040170038 425.940771246 49.4824621711 c 0
 447.027455325 70.3031318334 463.230408214 100.837009932 471.696699141 109.303300859 c 0
 473.160184788 110.766786506 475.080092394 111.498529329 477 111.498529329 c 0
 481.143890597 111.498529329 484.498529329 108.143850793 484.498529329 104 c 0
 484.498529329 102.354327421 483.960897863 100.708654842 482.88563493 99.3504279801 c 0
 464.199340857 75.7466880974 456.84898826 58.2313670208 434.230178394 36.6240660265 c 0
 431.724203745 34.151512549 429.114621387 33.2877258568 426.688423931 33.2877258568 c 0
 421.702358396 33.2877258568 417.490803267 36.9358548619 416.544715562 37.7660460872 c 0
 413.935163337 40.0559261364 414.039068123 39.3543301597 412.696699141 40.6966991411 c 0
 411.233213494 42.1601847879 410.501470671 44.0800923939 410.501512648 46.0251866008 c 2
 410.89098599 162.867189057 l 1
 380.870759088 92.0935470055 310.768783741 42.5014706709 229 42.5014706709 c 0
 120.106426532 42.5014706709 42.5014706709 130.576184416 42.5014706709 240 c 0
 42.5014706709 244.143890597 45.8561492075 247.498529329 50 247.498529329 c 0
 54.1438905974 247.498529329 57.4985293291 244.143850793 57.4985293291 240 c 0
 57.4985293291 139.43959475 127.883376442 57.4985293291 229 57.4985293291 c 0
 325.793567106 57.4985293291 404.889884562 132.697583918 411.107777085 227.904517687 c 1
 411.501512648 346.025186601 l 2
 411.515291622 350.158878793 414.8656537 353.498529329 419 353.498529329 c 0
EndSplineSet
Validated: 524289
EndChar

StartChar: uniE121
Encoding: 57633 57633 34
Width: 500
InSpiro: 1
Flags: HW
LayerCount: 2
Fore
SplineSet
250 757.498529329 m 0
 355.853086394 757.498529329 442.501470671 844.143972025 442.501470671 950 c 0
 442.501470671 954.143890597 445.856149207 957.498529329 450 957.498529329 c 0
 454.143890597 957.498529329 457.498529329 954.143850793 457.498529329 950 c 0
 457.498529329 835.855219414 364.146102082 742.501470671 250 742.501470671 c 0
 163.126703427 742.501470671 88.2964580401 796.575172653 57.4985293291 872.735058872 c 1
 57.4985293291 638 l 2
 57.4985293291 633.856109403 54.1438507925 630.501470671 50 630.501470671 c 0
 45.8561094026 630.501470671 42.5014706709 633.856149207 42.5014706709 638 c 2
 42.5014706709 950 l 2
 42.5014706709 954.143890597 45.8561492075 957.498529329 50 957.498529329 c 0
 54.1438905974 957.498529329 57.4985293291 954.143850793 57.4985293291 950 c 0
 57.4985293291 844.146913606 144.143972025 757.498529329 250 757.498529329 c 0
EndSplineSet
Validated: 524289
EndChar

StartChar: uniE123
Encoding: 57635 57635 35
Width: 500
Flags: HW
LayerCount: 2
Fore
SplineSet
418 881.498529329 m 0
 422.143890597 881.498529329 425.498529329 878.143850793 425.498529329 874 c 2
 425.498529329 768 l 2
 425.498529329 763.763934356 425.365437346 759.559188665 425.103203682 755.389712613 c 2
 424.511441214 577.860972213 l 2
 424.661145352 577.730531502 424.80402186 577.604017004 424.940771246 577.482462171 c 0
 446.027455326 598.303131834 462.230408213 628.837009931 470.696699141 637.303300859 c 0
 472.160184788 638.766786506 474.080092394 639.498529329 476 639.498529329 c 0
 480.143890597 639.498529329 483.498529329 636.143850793 483.498529329 632 c 0
 483.498529329 630.354327421 482.960897863 628.708654842 481.88563493 627.35042798 c 0
 463.199340857 603.746688098 455.84898826 586.231367021 433.230178394 564.624066026 c 0
 430.724203745 562.151512549 428.114621387 561.287725857 425.688423931 561.287725857 c 0
 420.702358396 561.287725857 416.490803267 564.935854862 415.544715562 565.766046087 c 0
 412.935163337 568.055926136 413.039068123 567.35433016 411.696699141 568.696699141 c 0
 410.233213494 570.160184788 409.501470671 572.080092394 409.501512648 574.025186601 c 2
 409.89098599 690.867189057 l 1
 379.870759088 620.093547006 309.768783741 570.501470671 228 570.501470671 c 0
 119.106426532 570.501470671 41.5014706709 658.576184416 41.5014706709 768 c 0
 41.5014706709 772.143890597 44.8561492075 775.498529329 49 775.498529329 c 0
 53.1438905974 775.498529329 56.4985293291 772.143850793 56.4985293291 768 c 0
 56.4985293291 667.43959475 126.883376442 585.498529329 228 585.498529329 c 0
 324.793567106 585.498529329 403.889884562 660.697583918 410.107777085 755.904517687 c 1
 410.501512648 874.025186601 l 2
 410.515291622 878.158878793 413.8656537 881.498529329 418 881.498529329 c 0
EndSplineSet
Validated: 524289
EndChar

StartChar: uniE124
Encoding: 57636 57636 36
Width: 1000
Flags: HW
LayerCount: 2
Fore
SplineSet
500 101.501470671 m 0
 456.854678322 101.501470671 421.501470671 136.853519018 421.501470671 180 c 0
 421.501470671 205.755033464 434.098594454 228.733474636 453.431097839 243.072838957 c 1
 312.395867003 242.281480055 164.162862699 241.501479628 40.0019972051 241.501470671 c 2
 40.0019608946 241.501470671 l 1
 40.0019302556 241.501470671 l 1
 40 241.501470671 l 2
 35.8561094026 241.501470671 32.5014706709 244.856149207 32.5014706709 249 c 0
 32.5014706709 253.143890597 35.8561492075 256.498529329 40 256.498529329 c 0
 176.179854002 256.498529329 341.580608515 257.437649929 494.437773649 258.301662516 c 0
 496.275722043 258.432159579 498.130544682 258.498529032 500 258.498529329 c 0
 501.569463957 258.498529329 503.128617156 258.451750445 504.67613297 258.359518901 c 0
 630.991693275 259.073027902 748.033081164 259.719243277 831.961130482 259.719243038 c 0
 939.400999333 259.719243038 958.518949526 258.694557392 962.745982995 257.433876354 c 0
 963.863476122 257.100592407 968.496568434 255.393539082 968.496568434 250 c 0
 968.496568434 245.856109403 965.141889898 242.501470671 960.998039105 242.501470671 c 0
 952.185797718 242.501470671 985.038288476 244.714381767 832.029398002 244.714381767 c 0
 756.84972997 244.714381767 655.965720233 244.205413686 545.859894662 243.592627769 c 1
 565.59263639 229.292672698 578.498529327 206.069037873 578.498529329 180 c 0
 578.498529329 136.854678322 543.146480982 101.501470671 500 101.501470671 c 0
504.244875124 243.359180168 m 0
 501.182933194 243.341914728 498.115650331 243.324609585 495.043361975 243.307272713 c 0
 462.471979137 240.746619265 436.498529329 213.188155457 436.498529329 180 c 0
 436.498529329 145.14733643 465.144479723 116.498529329 500 116.498529329 c 0
 534.85266357 116.498529329 563.501470671 145.144479723 563.501470671 180 c 0
 563.501470671 213.426918703 537.151266929 241.147171028 504.244875124 243.359180168 c 0
EndSplineSet
Validated: 524289
EndChar

StartChar: uniE125
Encoding: 57637 57637 37
Width: 1000
Flags: HW
LayerCount: 2
Fore
SplineSet
498 600.501470671 m 0
 454.854678322 600.501470671 419.501470671 635.853519018 419.501470671 679 c 0
 419.501470671 704.755068342 432.098628573 727.733536872 451.431176375 742.072898334 c 1
 310.395918619 741.281509861 162.162886291 740.501478496 38.0019942142 740.501470671 c 2
 38.001953125 740.501470671 l 1
 38.0019226074 740.501470671 l 1
 38 740.501470671 l 2
 33.8561094026 740.501470671 30.5014706709 743.856149207 30.5014706709 748 c 0
 30.5014706709 752.143890597 33.8561492075 755.498529329 38 755.498529329 c 2
 38.0019890095 755.498529329 l 2
 174.181771023 755.498529329 339.582098812 756.437695249 492.438809241 757.301736531 c 0
 494.276418775 757.432185 496.130895794 757.498529525 498 757.498529329 c 0
 499.56910197 757.498529329 501.127897939 757.451772021 502.675062194 757.359583171 c 0
 628.990437517 758.073117365 746.031743349 758.719355674 829.959948237 758.719355895 c 0
 937.400850192 758.719355895 956.518923956 757.694617417 960.746038536 756.433873684 c 0
 961.863517201 756.100583872 966.496576204 754.393503408 966.496576204 749 c 0
 966.496576204 744.856109403 963.141897668 741.501470671 958.998046875 741.501470671 c 0
 950.185652804 741.501470671 983.038580542 743.714493989 830.028211746 743.714493989 c 0
 754.848620378 743.714493989 653.965056571 743.205511135 543.859784323 742.592706985 c 1
 563.592588282 728.292758525 576.498529331 705.069085717 576.498529329 679 c 0
 576.498529329 635.854678322 541.146480982 600.501470671 498 600.501470671 c 0
502.243916017 742.359245004 m 0
 499.182605615 742.341982491 496.115956529 742.324680291 493.044303985 742.307346753 c 0
 460.472479931 739.747150605 434.498529329 712.188475395 434.498529329 679 c 0
 434.498529329 644.14733643 463.144479723 615.498529329 498 615.498529329 c 0
 532.85266357 615.498529329 561.501470671 644.144479723 561.501470671 679 c 0
 561.501470671 712.427243461 535.150754917 740.147709659 502.243916017 742.359245004 c 0
EndSplineSet
Validated: 524289
EndChar

StartChar: uniE126
Encoding: 57638 57638 38
Width: 1000
Flags: HW
LayerCount: 2
Fore
SplineSet
957.498529329 250 m 0
 957.498529329 245.856109403 954.143850793 242.501470671 950 242.501470671 c 2
 506.938018301 242.501470671 l 1
 506.498336581 180.946029888 l 2
 506.468893779 176.824037556 503.123486859 173.501470671 499 173.501470671 c 0
 494.929308959 173.501470671 491.501244266 176.761544541 491.501663419 181.053970112 c 2
 491.940574137 242.501470671 l 1
 50 242.501470671 l 2
 45.8561094026 242.501470671 42.5014706709 245.856149207 42.5014706709 250 c 0
 42.5014706709 254.143890597 45.8561492075 257.498529329 50 257.498529329 c 2
 492.047695984 257.498529329 l 1
 492.501663419 321.053970112 l 2
 492.501663419 325.088395045 495.817857686 328.498529329 500 328.498529329 c 0
 504.070691041 328.498529329 507.498755734 325.238455459 507.498336581 320.946029888 c 2
 507.045140149 257.498529329 l 1
 950 257.498529329 l 2
 954.143890597 257.498529329 957.498529329 254.143850793 957.498529329 250 c 0
EndSplineSet
Validated: 524289
EndChar

StartChar: uniE127
Encoding: 57639 57639 39
Width: 1000
Flags: HW
LayerCount: 2
Fore
SplineSet
957.498529329 749 m 0
 957.498529329 744.856109403 954.143850793 741.501470671 950 741.501470671 c 2
 506.938018301 741.501470671 l 1
 506.498336581 679.946029888 l 2
 506.468893779 675.824037556 503.123486859 672.501470671 499 672.501470671 c 0
 494.929308959 672.501470671 491.501244266 675.761544541 491.501663419 680.053970112 c 2
 491.940574137 741.501470671 l 1
 50 741.501470671 l 2
 45.8561094026 741.501470671 42.5014706709 744.856149207 42.5014706709 749 c 0
 42.5014706709 753.143890597 45.8561492075 756.498529329 50 756.498529329 c 2
 492.047695984 756.498529329 l 1
 492.501663419 820.053970112 l 2
 492.501663419 824.088395045 495.817857686 827.498529329 500 827.498529329 c 0
 504.070691041 827.498529329 507.498755734 824.238455459 507.498336581 819.946029888 c 2
 507.045140149 756.498529329 l 1
 950 756.498529329 l 2
 954.143890597 756.498529329 957.498529329 753.143850793 957.498529329 749 c 0
EndSplineSet
Validated: 524289
EndChar

StartChar: uniE128
Encoding: 57640 57640 40
Width: 1000
Flags: HW
LayerCount: 2
Fore
SplineSet
911 918.498529329 m 0
 915.143890597 918.498529329 918.498529329 915.143850793 918.498529329 911 c 0
 918.498529329 909.080092394 917.766786506 907.160184788 916.303300859 905.696699141 c 2
 510.606601718 500 l 1
 605.303300859 405.303300859 l 2
 606.766786506 403.839815212 607.498529329 401.919907606 607.498529329 400 c 0
 607.498529329 395.856109403 604.143850793 392.501470671 600 392.501470671 c 0
 598.080092394 392.501470671 596.160184788 393.233213494 594.696699141 394.696699141 c 2
 500 489.393398282 l 1
 95.3033008589 84.6966991411 l 2
 93.8398152121 83.2332134943 91.9199076061 82.5014706709 90 82.5014706709 c 0
 85.8561094026 82.5014706709 82.5014706709 85.8561492075 82.5014706709 90 c 0
 82.5014706709 91.9199076061 83.2332134943 93.8398152121 84.6966991411 95.3033008589 c 2
 489.393398282 500 l 1
 393.696699141 595.696699141 l 2
 392.233213494 597.160184788 391.501470671 599.080092394 391.501470671 601 c 0
 391.501470671 605.143890597 394.856149207 608.498529329 399 608.498529329 c 0
 400.919907606 608.498529329 402.839815212 607.766786506 404.303300859 606.303300859 c 2
 500 510.606601718 l 1
 905.696699141 916.303300859 l 2
 907.160184788 917.766786506 909.080092394 918.498529329 911 918.498529329 c 0
EndSplineSet
Validated: 524289
EndChar

StartChar: uniE129
Encoding: 57641 57641 41
Width: 500
Flags: HW
LayerCount: 2
Fore
SplineSet
38.6565692699 304.201046947 m 0
 38.6565692699 362.054636298 42.5014706709 430.155870473 42.5014706709 500 c 0
 42.5014706709 535.894032109 41.4911779507 570.881646628 40.5196486712 604.495829372 c 0
 39.6044301191 636.161703279 38.6565692699 666.748136103 38.6565692699 695.798953053 c 0
 38.6565692699 843.541639183 63.2733567798 957.498529329 250 957.498529329 c 0
 436.705530855 957.498529329 461.34343073 843.575247759 461.34343073 695.798953053 c 0
 461.34343073 637.945363702 457.498529329 569.844129527 457.498529329 500 c 0
 457.498529329 464.105967891 458.508822049 429.118353372 459.480351329 395.504170628 c 0
 460.395569881 363.838296721 461.34343073 333.251863897 461.34343073 304.201046947 c 0
 461.34343073 156.458360817 436.72664322 42.5014706709 250 42.5014706709 c 0
 63.2944691449 42.5014706709 38.6565692699 156.424752241 38.6565692699 304.201046947 c 0
53.8623012166 691.078676114 m 0
 53.8623012166 631.719955326 57.4985293291 568.689318343 57.4985293291 500 c 0
 57.4985293291 463.8231389 56.4819436748 428.682285319 55.51039974 395.067595512 c 0
 54.6385227743 364.901307915 53.8623012166 336.086215819 53.8623012166 308.921323886 c 0
 53.8623012166 153.853572493 78.9458219432 57.4985293291 250 57.4985293291 c 0
 421.036413642 57.4985293291 446.137698783 153.825647623 446.137698783 308.921323886 c 0
 446.137698783 368.280044674 442.501470671 431.310681657 442.501470671 500 c 0
 442.501470671 536.1768611 443.518056325 571.317714681 444.48960026 604.932404488 c 0
 445.361477226 635.098692085 446.137698783 663.913784181 446.137698783 691.078676114 c 0
 446.137698783 846.146427507 421.054178057 942.501470671 250 942.501470671 c 0
 78.9635863584 942.501470671 53.8623012166 846.174352377 53.8623012166 691.078676114 c 0
EndSplineSet
Validated: 524289
EndChar

StartChar: uniE12A
Encoding: 57642 57642 42
Width: 500
Flags: HW
LayerCount: 2
Fore
SplineSet
250 443.501470671 m 0
 113.204266032 443.501470671 57.4985293291 299.743231201 57.4985293291 50 c 0
 57.4985293291 45.8561094026 54.1438507925 42.5014706709 50 42.5014706709 c 0
 45.8561094026 42.5014706709 42.5014706709 45.8561492075 42.5014706709 50 c 0
 42.5014706709 192.745695703 56.0289516105 458.498529329 250 458.498529329 c 0
 444.034881184 458.498529329 457.498529329 192.550914183 457.498529329 50 c 0
 457.498529329 45.8561094026 454.143850793 42.5014706709 450 42.5014706709 c 0
 445.856109403 42.5014706709 442.501470671 45.8561492075 442.501470671 50 c 0
 442.501470671 299.916767718 386.715536382 443.501470671 250 443.501470671 c 0
EndSplineSet
Validated: 524289
EndChar

StartChar: uniE12B
Encoding: 57643 57643 43
Width: 500
Flags: HW
LayerCount: 2
Fore
SplineSet
251 941.501470671 m 0
 114.204266032 941.501470671 58.4985293291 797.743231201 58.4985293291 548 c 0
 58.4985293291 543.856109403 55.1438507925 540.501470671 51 540.501470671 c 0
 46.8561094026 540.501470671 43.5014706709 543.856149207 43.5014706709 548 c 0
 43.5014706709 690.745695703 57.0289516105 956.498529329 251 956.498529329 c 0
 445.034881184 956.498529329 458.498529329 690.550914183 458.498529329 548 c 0
 458.498529329 543.856109403 455.143850793 540.501470671 451 540.501470671 c 0
 446.856109403 540.501470671 443.501470671 543.856149207 443.501470671 548 c 0
 443.501470671 797.916767718 387.715536382 941.501470671 251 941.501470671 c 0
EndSplineSet
Validated: 524289
EndChar

StartChar: uniE12C
Encoding: 57644 57644 44
Width: 500
Flags: HW
LayerCount: 2
Fore
SplineSet
350 458.498529329 m 0
 454.481778403 458.498529329 457.498529329 312.342447091 457.498529329 250 c 2
 457.498529329 50 l 2
 457.498529329 45.8561094026 454.143850793 42.5014706709 450 42.5014706709 c 0
 445.856109403 42.5014706709 442.501470671 45.8561492075 442.501470671 50 c 2
 442.501470671 250 l 2
 442.501470671 408.540448664 397.69383086 443.501470671 350 443.501470671 c 0
 302.379275569 443.501470671 257.498529329 408.662022457 257.498529329 250 c 2
 257.498529329 51 l 2
 257.498529329 46.8561094026 254.143850793 43.5014706709 250 43.5014706709 c 0
 245.856109403 43.5014706709 242.501470671 46.8561492075 242.501470671 51 c 2
 242.501470671 250 l 2
 242.501470671 408.540448664 197.69383086 443.501470671 150 443.501470671 c 0
 102.379275569 443.501470671 57.4985293291 408.662022457 57.4985293291 250 c 2
 57.4985293291 50 l 2
 57.4985293291 45.8561094026 54.1438507925 42.5014706709 50 42.5014706709 c 0
 45.8561094026 42.5014706709 42.5014706709 45.8561492075 42.5014706709 50 c 2
 42.5014706709 250 l 2
 42.5014706709 312.259553703 45.4923969077 458.498529329 150 458.498529329 c 0
 213.173579984 458.498529329 239.25294007 405.065873873 249.999785071 349.034699232 c 1
 260.745865661 405.058429012 286.824316185 458.498529329 350 458.498529329 c 0
EndSplineSet
Validated: 524289
EndChar

StartChar: uniE12D
Encoding: 57645 57645 45
Width: 500
Flags: HW
LayerCount: 2
Fore
SplineSet
350 958.498529329 m 0
 454.481778403 958.498529329 457.498529329 812.342447091 457.498529329 750 c 2
 457.498529329 550 l 2
 457.498529329 545.856109403 454.143850793 542.501470671 450 542.501470671 c 0
 445.856109403 542.501470671 442.501470671 545.856149207 442.501470671 550 c 2
 442.501470671 750 l 2
 442.501470671 908.540448664 397.69383086 943.501470671 350 943.501470671 c 0
 302.379275569 943.501470671 257.498529329 908.662022457 257.498529329 750 c 2
 257.498529329 551 l 2
 257.498529329 546.856109403 254.143850793 543.501470671 250 543.501470671 c 0
 245.856109403 543.501470671 242.501470671 546.856149207 242.501470671 551 c 2
 242.501470671 749.757042567 l 2
 242.006219558 757.141540209 228.388188195 943.501470671 150 943.501470671 c 0
 102.379275569 943.501470671 57.4985293291 908.662022457 57.4985293291 750 c 2
 57.4985293291 550 l 2
 57.4985293291 545.856109403 54.1438507925 542.501470671 50 542.501470671 c 0
 45.8561094026 542.501470671 42.5014706709 545.856149207 42.5014706709 550 c 2
 42.5014706709 750 l 2
 42.5014706709 812.259553703 45.4923969077 958.498529329 150 958.498529329 c 0
 206.362707646 958.498529329 233.654846758 886.519755946 246.546880363 827.232986747 c 1
 254.609370514 890.309019048 278.636670514 958.49852936 350 958.498529329 c 0
EndSplineSet
Validated: 524289
EndChar

StartChar: uniE12E
Encoding: 57646 57646 46
Width: 500
Flags: HW
LayerCount: 2
Fore
SplineSet
250 458.498529329 m 0
 254.143890597 458.498529329 257.498529329 455.143850793 257.498529329 451 c 2
 257.498529329 353.57411459 l 1
 364.812690702 456.416852573 l 2
 366.260813663 457.804637077 368.130406832 458.498529329 370 458.498529329 c 0
 374.143890597 458.498529329 377.498529329 455.143850793 377.498529329 451 c 0
 377.498529329 449.080092394 376.798781794 447.127475236 375.304496343 445.695451679 c 2
 257.498529329 332.798066624 l 1
 257.498529329 303.57411459 l 1
 364.812690702 406.416852573 l 2
 366.260813663 407.804637077 368.130406832 408.498529329 370 408.498529329 c 0
 374.143890597 408.498529329 377.498529329 405.143850793 377.498529329 401 c 0
 377.498529329 399.080092394 376.798781794 397.127475236 375.304496343 395.695451679 c 2
 257.498529329 282.798066624 l 1
 257.498529329 253.57411459 l 1
 364.812690702 356.416852573 l 2
 366.260813663 357.804637077 368.130406832 358.498529329 370 358.498529329 c 0
 374.143890597 358.498529329 377.498529329 355.143850793 377.498529329 351 c 0
 377.498529329 349.080092394 376.798781794 347.127475236 375.304496343 345.695451679 c 2
 257.498529329 232.798066624 l 1
 257.498529329 50 l 2
 257.498529329 45.8561094026 254.143850793 42.5014706709 250 42.5014706709 c 0
 245.856109403 42.5014706709 242.501470671 45.8561492075 242.501470671 50 c 2
 242.501470671 232.873384521 l 1
 226.212793865 249.025182269 125.717701964 348.675784738 125.696699141 348.696699141 c 0
 124.233213494 350.160184788 123.501470671 352.080092394 123.501470671 354 c 0
 123.501470671 358.143890597 126.856149207 361.498529329 131 361.498529329 c 0
 132.909929437 361.498529329 134.819858874 360.774372787 136.280445797 359.326059704 c 2
 242.501470671 253.997648485 l 1
 242.501470671 282.873384521 l 1
 226.212793865 299.025182269 125.717701964 398.675784738 125.696699141 398.696699141 c 0
 124.233213494 400.160184788 123.501470671 402.080092394 123.501470671 404 c 0
 123.501470671 408.143890597 126.856149207 411.498529329 131 411.498529329 c 0
 132.909929437 411.498529329 134.819858874 410.774372787 136.280445797 409.326059704 c 2
 242.501470671 303.997648485 l 1
 242.501470671 332.873384521 l 1
 226.212793865 349.025182269 125.717701964 448.675784738 125.696699141 448.696699141 c 0
 124.233213494 450.160184788 123.501470671 452.080092394 123.501470671 454 c 0
 123.501470671 458.143890597 126.856149207 461.498529329 131 461.498529329 c 0
 132.909929437 461.498529329 134.819858874 460.774372787 136.280445797 459.326059704 c 2
 242.501470671 353.997648485 l 1
 242.501470671 451 l 2
 242.501470671 455.143890597 245.856149207 458.498529329 250 458.498529329 c 0
EndSplineSet
Validated: 524289
EndChar

StartChar: uniE12F
Encoding: 57647 57647 47
Width: 500
Flags: HW
LayerCount: 2
Fore
SplineSet
250 958.498529329 m 0
 254.143890597 958.498529329 257.498529329 955.143850793 257.498529329 951 c 2
 257.498529329 853.57411459 l 1
 364.812690702 956.416852573 l 2
 366.260813663 957.804637077 368.130406832 958.498529329 370 958.498529329 c 0
 374.143890597 958.498529329 377.498529329 955.143850793 377.498529329 951 c 0
 377.498529329 949.080092394 376.798781794 947.127475236 375.304496343 945.695451679 c 2
 257.498529329 832.798066624 l 1
 257.498529329 803.57411459 l 1
 364.812690702 906.416852573 l 2
 366.260813663 907.804637077 368.130406832 908.498529329 370 908.498529329 c 0
 374.143890597 908.498529329 377.498529329 905.143850793 377.498529329 901 c 0
 377.498529329 899.080092394 376.798781794 897.127475236 375.304496343 895.695451679 c 2
 257.498529329 782.798066624 l 1
 257.498529329 753.57411459 l 1
 364.812690702 856.416852573 l 2
 366.260813663 857.804637077 368.130406832 858.498529329 370 858.498529329 c 0
 374.143890597 858.498529329 377.498529329 855.143850793 377.498529329 851 c 0
 377.498529329 849.080092394 376.798781794 847.127475236 375.304496343 845.695451679 c 2
 257.498529329 732.798066624 l 1
 257.498529329 550 l 2
 257.498529329 545.856109403 254.143850793 542.501470671 250 542.501470671 c 0
 245.856109403 542.501470671 242.501470671 545.856149207 242.501470671 550 c 2
 242.501470671 732.873386257 l 1
 125.696699141 848.696699141 l 2
 124.233213494 850.160184788 123.501470671 852.080092394 123.501470671 854 c 0
 123.501470671 858.143890597 126.856149207 861.498529329 131 861.498529329 c 0
 132.909929437 861.498529329 134.819858874 860.774372787 136.280445797 859.326059704 c 2
 242.501470671 753.997648485 l 1
 242.501470671 782.873386257 l 1
 125.696699141 898.696699141 l 2
 124.233213494 900.160184788 123.501470671 902.080092394 123.501470671 904 c 0
 123.501470671 908.143890597 126.856149207 911.498529329 131 911.498529329 c 0
 132.909929437 911.498529329 134.819858874 910.774372787 136.280445797 909.326059704 c 2
 242.501470671 803.997648485 l 1
 242.501470671 832.873386257 l 1
 125.696699141 948.696699141 l 2
 124.233213494 950.160184788 123.501470671 952.080092394 123.501470671 954 c 0
 123.501470671 958.143890597 126.856149207 961.498529329 131 961.498529329 c 0
 132.909929437 961.498529329 134.819858874 960.774372787 136.280445797 959.326059704 c 2
 242.501470671 853.997648485 l 1
 242.501470671 951 l 2
 242.501470671 955.143890597 245.856149207 958.498529329 250 958.498529329 c 0
EndSplineSet
Validated: 524289
EndChar

StartChar: uniE130
Encoding: 57648 57648 48
Width: 1000
Flags: HW
LayerCount: 2
Fore
SplineSet
957.498529329 350 m 0
 957.498529329 345.856109403 954.143850793 342.501470671 950 342.501470671 c 2
 579.236251475 342.501470671 l 1
 659.095850181 310.972400817 715.498529329 233.155224633 715.498529329 142 c 0
 715.498529329 137.856109403 712.143850793 134.501470671 708 134.501470671 c 0
 703.856109403 134.501470671 700.501470671 137.856149207 700.501470671 142 c 0
 700.501470671 252.861975239 610.850765418 342.501470671 500 342.501470671 c 0
 389.138024761 342.501470671 299.498529329 252.850765418 299.498529329 142 c 0
 299.498529329 137.856109403 296.143850793 134.501470671 292 134.501470671 c 0
 287.856109403 134.501470671 284.501470671 137.856149207 284.501470671 142 c 0
 284.501470671 233.15728175 340.905539241 310.972884043 420.764041938 342.501470671 c 1
 50 342.501470671 l 2
 45.8561094026 342.501470671 42.5014706709 345.856149207 42.5014706709 350 c 0
 42.5014706709 354.143890597 45.8561492075 357.498529329 50 357.498529329 c 2
 500 357.498529329 l 1
 950 357.498529329 l 2
 954.143890597 357.498529329 957.498529329 354.143850793 957.498529329 350 c 0
EndSplineSet
Validated: 524289
EndChar

StartChar: uniE131
Encoding: 57649 57649 49
Width: 1000
Flags: HW
LayerCount: 2
Fore
SplineSet
957.498529329 876 m 0
 957.498529329 871.856109403 954.143850793 868.501470671 950 868.501470671 c 2
 579.236251475 868.501470671 l 1
 659.095850181 836.972400817 715.498529329 759.155224633 715.498529329 668 c 0
 715.498529329 663.856109403 712.143850793 660.501470671 708 660.501470671 c 0
 703.856109403 660.501470671 700.501470671 663.856149207 700.501470671 668 c 0
 700.501470671 778.861975239 610.850765418 868.501470671 500 868.501470671 c 0
 389.138024761 868.501470671 299.498529329 778.850765418 299.498529329 668 c 0
 299.498529329 663.856109403 296.143850793 660.501470671 292 660.501470671 c 0
 287.856109403 660.501470671 284.501470671 663.856149207 284.501470671 668 c 0
 284.501470671 759.15728175 340.905539241 836.972884043 420.764041938 868.501470671 c 1
 50 868.501470671 l 2
 45.8561094026 868.501470671 42.5014706709 871.856149207 42.5014706709 876 c 0
 42.5014706709 880.143890597 45.8561492075 883.498529329 50 883.498529329 c 2
 499.999997337 883.498529329 l 1
 500 883.498529329 l 1
 950 883.498529329 l 2
 954.143890597 883.498529329 957.498529329 880.143850793 957.498529329 876 c 0
EndSplineSet
Validated: 524289
EndChar

StartChar: uniE132
Encoding: 57650 57650 50
Width: 500
Flags: HW
LayerCount: 2
Fore
SplineSet
250 942.501470671 m 0
 77.1588760137 942.501470671 53.7668127438 601.443857606 53.7668127438 328.914020449 c 0
 53.7668127438 268.275836072 54.9185919285 210.225734936 55.9447253553 158.72969905 c 0
 56.7625865421 117.685710103 57.4985293291 80.795807472 57.4985293291 50 c 0
 57.4985293291 45.8561094026 54.1438507925 42.5014706709 50 42.5014706709 c 0
 45.8561094026 42.5014706709 42.5014706709 45.8561492075 42.5014706709 50 c 0
 42.5014706709 119.130010549 38.7567084333 220.0852019 38.7567084333 329.219989796 c 0
 38.7567084333 616.575739351 64.3627484236 957.498529329 250 957.498529329 c 0
 435.62215007 957.498529329 461.243291567 616.637531658 461.243291567 329.219989796 c 0
 461.243291567 268.281947549 460.077628044 210.033097399 459.049334054 158.428634631 c 0
 458.231537698 117.387899183 457.498529329 80.5591610552 457.498529329 50 c 0
 457.498529329 45.8561094026 454.143850793 42.5014706709 450 42.5014706709 c 0
 445.856109403 42.5014706709 442.501470671 45.8561492075 442.501470671 50 c 0
 442.501470671 119.289235308 446.233187256 219.677694747 446.233187256 328.914020449 c 0
 446.233187256 601.821588274 422.754189026 942.501470671 250 942.501470671 c 0
EndSplineSet
Validated: 524289
EndChar

